<?xml version="1.0" encoding="UTF-8"?>
<svg id="Layer_1" xmlns="http://www.w3.org/2000/svg" version="1.1" viewBox="0 0 1105.7 768">
  <!-- Generator: Adobe Illustrator 29.0.0, SVG Export Plug-In . SVG Version: 2.1.0 Build 186)  -->
  <defs>
    <style>
      .st0 {
        fill: #f4c330;
      }

      .st1 {
        fill: #fdbe01;
      }

      .st2 {
        fill: #f4c21d;
      }

      .st3 {
        fill: #f4c32a;
      }

      .st4 {
        fill: #f5c22b;
      }
    </style>
  </defs>
  <path class="st1" d="M1105.7,0v767.4h-293.3c-62.8-79.6-125.4-159.3-188.5-238.8-4.6-5.9-27-29.8-27.1-35.3s4.5-17.3,5.7-21.4c25.6-83.4,53-167.1,79.2-250.1,23.3-73.9,47.4-147.6,70.1-221.8h354Z"/>
  <path class="st2" d="M416.3,606c20.9,20.6,40.6,42.4,61.9,62.7,4.1,12,.7,15.9-9.1,7.1-22.2-19.9-43.9-45-65.2-66.2s-22.2-19.5-30.7-29.2c-.7-.8-3-4.5-2.7-4.8.5-.5,12.9-.1,15,.7,9.9,10.2,20.7,19.8,30.8,29.7Z"/>
  <path class="st4" d="M111.8,240.2L11.7,140.1c-1.4-2.3-10.2-1.2-11.6,0,0,0,0,0,0,0,0,0,0,.1-.1.2,2.4,2.4,5.6,5.7,9.7,10.1,29,30.5,59.7,59.7,89.3,89.7h-.1c2.2,2.3,5.5,9.1,9.4,9.1s6.5-6,3.5-9Z"/>
  <path class="st3" d="M150.3,701.7c20.9,20.6,42.3,40.8,62.8,61.7,8.2,5.5-9.3,5-11.3,3.8s-3.1-8.2-7.1-8.5c-25.8-26.7-52.6-52.7-78.9-79.1,4.2-1.4,10.2-1.4,14.2.8,7.2,6.3,13.8,14.6,20.4,21.1h-.1Z"/>
  <path class="st0" d="M395,761.9c-3.7-.4-8,.7-11.6,0s-19.6-17.2-20.4-19.1c-1.9-4.2.4-7.6,5.2-6.5,4.8,1.1,7.1,6.4,10.5,9.9,5.3,5.5,10.8,10.5,16.4,15.5h0Z"/>
</svg>